<svg width="34" height="34" viewBox="0 0 34 34" fill="none" xmlns="http://www.w3.org/2000/svg">
<path d="M0 17C0 12.2521 0 9.87811 0.667788 7.96968C1.86388 4.55144 4.55144 1.86388 7.96968 0.667788C9.87811 0 12.2521 0 17 0C21.7479 0 24.1219 0 26.0303 0.667788C29.4486 1.86388 32.1361 4.55144 33.3322 7.96968C34 9.87811 34 12.2521 34 17C34 21.7479 34 24.1219 33.3322 26.0303C32.1361 29.4486 29.4486 32.1361 26.0303 33.3322C24.1219 34 21.7479 34 17 34C12.2521 34 9.87811 34 7.96968 33.3322C4.55144 32.1361 1.86388 29.4486 0.667788 26.0303C0 24.1219 0 21.7479 0 17Z" fill="#FF7D56"/>
<path d="M24.7239 17.3106H21.3041C22.5715 17.3106 23.5803 16.3131 23.5803 15.1079V10.1693C23.5803 8.96396 22.5715 8 21.3041 8H16.1114C14.8441 8 13.7906 8.96389 13.7906 10.1693V15.1078C13.7906 15.5553 13.9441 15.9717 14.1877 16.3185L14.0956 16.2256C13.6629 15.8141 13.0884 15.5874 12.4731 15.5874C11.8576 15.5874 11.2819 15.8141 10.8491 16.2256L7.67196 19.2479C6.77579 20.1002 6.77613 21.4871 7.6723 22.3394L10.8503 25.3618C11.2831 25.7733 11.8604 26 12.4757 26C13.0911 26 13.6684 25.7733 14.1011 25.3618L17.2679 22.3394C17.5968 22.0267 17.8137 21.6419 17.8808 21.2378V23.7807C17.8808 24.9859 18.9343 25.9834 20.2016 25.9834H24.7238C25.9912 25.9834 27 24.9859 27 23.7807V19.4799C27.0001 18.2745 25.9912 17.3106 24.7239 17.3106ZM18.9956 9.81823C19.7716 9.81823 20.5032 10.1036 21.0558 10.6219C21.2667 10.8197 21.2691 11.1426 21.0611 11.3433C20.8529 11.5439 20.5133 11.5462 20.3024 11.3484C19.9519 11.0197 19.4878 10.8386 18.9956 10.8386C17.9693 10.8386 17.1344 11.6326 17.1344 12.6086C17.1344 13.5846 17.9693 14.3786 18.9956 14.3786C19.5394 14.3786 20.0546 14.1532 20.409 13.7601C20.6018 13.5463 20.9405 13.5215 21.1653 13.705C21.3902 13.8883 21.4163 14.2104 21.2234 14.4242C20.665 15.0438 19.853 15.399 18.9955 15.399C17.3777 15.399 16.0615 14.1472 16.0615 12.6086C16.0616 11.07 17.3778 9.81823 18.9956 9.81823ZM15.9022 20.9704C15.8057 21.2367 15.5005 21.3782 15.2203 21.2865L14.4294 21.0274L12.7308 22.6428L12.9963 23.4105C13.0889 23.6782 12.9359 23.9666 12.6544 24.0546C12.5987 24.072 12.5422 24.0803 12.4867 24.0803C12.2612 24.0803 12.0514 23.9441 11.9771 23.7294L10.5266 19.5356C10.4629 19.3515 10.5144 19.1489 10.6595 19.0129C10.8045 18.8767 11.0182 18.8307 11.2108 18.8938L15.5697 20.3218C15.8499 20.4136 15.9987 20.704 15.9022 20.9704ZM17.8808 19.4798V20.3497C17.8137 19.9458 17.5968 19.5608 17.2679 19.248L14.8327 16.9351C15.1974 17.1668 15.6409 17.3106 16.1114 17.3106H20.2017C18.9343 17.3106 17.8808 18.2745 17.8808 19.4798ZM22.8883 24.134H20.9205C20.6243 24.134 20.3618 23.8889 20.3618 23.6071V19.6534C20.3618 19.3716 20.6243 19.1599 20.9205 19.1599H22.3317C23.2044 19.1599 23.9144 19.8359 23.9144 20.6771C23.9144 20.9026 23.8614 21.1167 23.7627 21.3159C24.1893 21.5903 24.4711 22.0657 24.4711 22.5973C24.471 23.4411 23.761 24.134 22.8883 24.134Z" fill="white"/>
</svg>
