<svg width="40" height="40" viewBox="0 0 40 40" fill="none" xmlns="http://www.w3.org/2000/svg">
<path d="M31.7764 30.7111H31.645C31.6387 30.7111 31.6327 30.7095 31.6264 30.7095C31.6162 30.7097 31.6062 30.7111 31.5959 30.7111H28.8691V32.8568H31.7766C32.3292 32.8568 32.7963 32.3654 32.7963 31.7839C32.796 31.2022 32.3291 30.7111 31.7764 30.7111Z" fill="white"/>
<path d="M31.6827 27.7504C31.6827 27.1744 31.2158 26.688 30.663 26.688H28.8689V28.5655H31.2968C31.4803 28.4314 31.6827 28.1333 31.6827 27.7504Z" fill="white"/>
<path d="M35.4475 20.6531H28.6081C31.1429 20.6531 33.1605 18.5556 33.1605 16.021V5.63551C33.1605 3.10064 31.1429 1.07349 28.6081 1.07349H18.2228C15.688 1.07349 13.5811 3.1005 13.5811 5.63551V16.0208C13.5811 16.962 13.8881 17.8376 14.3753 18.567L14.1912 18.3716C13.3256 17.5062 12.1767 17.0294 10.9461 17.0294C9.71523 17.0294 8.56365 17.5062 7.69813 18.3716L1.34391 24.7273C-0.448418 26.5196 -0.447747 29.4361 1.34458 31.2286L7.70055 37.5844C8.56607 38.4498 9.72072 38.9266 10.9514 38.9266C12.1821 38.9266 13.3366 38.4498 14.2022 37.5844L20.5357 31.2286C21.1935 30.571 21.6273 29.7616 21.7615 28.9119V34.2594C21.7615 36.794 23.8684 38.8916 26.4031 38.8916H35.4474C37.9821 38.8916 39.9998 36.794 39.9998 34.2594V25.2152C39.9999 22.6801 37.9823 20.6531 35.4475 20.6531ZM23.991 4.89712C25.543 4.89712 27.0062 5.49725 28.1114 6.58713C28.5331 7.00313 28.5381 7.68224 28.122 8.10427C27.7057 8.52617 27.0265 8.531 26.6047 8.115C25.9037 7.42382 24.9754 7.04296 23.991 7.04296C21.9385 7.04296 20.2687 8.71271 20.2687 10.7652C20.2687 12.8177 21.9385 14.4875 23.991 14.4875C25.0787 14.4875 26.109 14.0134 26.8178 13.1868C27.2035 12.737 27.8809 12.6849 28.3305 13.0708C28.7803 13.4563 28.8323 14.1337 28.4466 14.5833C27.3298 15.8862 25.7058 16.6332 23.9908 16.6332C20.7553 16.6332 18.1229 14.0008 18.1229 10.7652C18.123 7.5295 20.7554 4.89712 23.991 4.89712ZM17.8042 28.3495C17.6113 28.9095 17.0008 29.2072 16.4405 29.0143L14.8587 28.4694L11.4616 31.8666L11.9926 33.4811C12.1778 34.0439 11.8717 34.6503 11.3087 34.8355C11.1974 34.8721 11.0843 34.8894 10.9733 34.8894C10.5224 34.8894 10.1028 34.6031 9.9542 34.1516L7.05308 25.3322C6.92582 24.9451 7.02868 24.5191 7.31888 24.233C7.60895 23.9466 8.03635 23.8498 8.42164 23.9826L17.1392 26.9856C17.6996 27.1787 17.9974 27.7893 17.8042 28.3495ZM21.7615 25.215V27.0444C21.6273 26.1949 21.1934 25.3853 20.5356 24.7274L15.6654 19.8636C16.3948 20.3509 17.2816 20.6531 18.2228 20.6531H26.4033C23.8684 20.6531 21.7615 22.6801 21.7615 25.215ZM31.7765 35.0025H27.8409C27.2484 35.0025 26.7234 34.487 26.7234 33.8945V25.5799C26.7234 24.9874 27.2484 24.5422 27.8409 24.5422H30.6632C32.4086 24.5422 33.8286 25.9637 33.8286 27.7327C33.8286 28.2071 33.7227 28.6573 33.5252 29.0761C34.3784 29.6531 34.9419 30.653 34.9419 31.7709C34.9418 33.5453 33.5218 35.0025 31.7765 35.0025Z" fill="white"/>
<path d="M10.7104 29.583L12.6016 27.692L9.76709 26.7156L10.7104 29.583Z" fill="white"/>
</svg>
