<svg width="36" height="36" viewBox="0 0 36 36" fill="none" xmlns="http://www.w3.org/2000/svg">
<path d="M3.16406 12.7253H1.05469C0.471727 12.7253 0 13.1971 0 13.78C0 14.363 0.471727 14.8347 1.05469 14.8347H3.16406C3.74702 14.8347 4.21875 14.363 4.21875 13.78C4.21875 13.1971 3.74702 12.7253 3.16406 12.7253Z" fill="white"/>
<path d="M3.67104 7.45191L2.17964 5.96058C1.76768 5.54862 1.1002 5.54862 0.688243 5.96058C0.276282 6.37254 0.276282 7.04002 0.688243 7.45198L2.17964 8.9433C2.59167 9.35534 3.25901 9.35534 3.67104 8.9433C4.083 8.53134 4.083 7.86387 3.67104 7.45191Z" fill="white"/>
<path d="M3.67104 18.6171C3.25908 18.2051 2.5916 18.2051 2.17964 18.6171L0.688243 20.1085C0.276282 20.5205 0.276282 21.1879 0.688243 21.5999C1.10027 22.0119 1.76761 22.0119 2.17964 21.5999L3.67104 20.1085C4.083 19.6965 4.083 19.0291 3.67104 18.6171Z" fill="white"/>
<path d="M34.9453 12.7253H32.8359C32.253 12.7253 31.7812 13.1971 31.7812 13.78C31.7812 14.363 32.253 14.8347 32.8359 14.8347H34.9453C35.5283 14.8347 36 14.363 36 13.78C36 13.1971 35.5283 12.7253 34.9453 12.7253Z" fill="white"/>
<path d="M35.3117 5.96083C34.8997 5.54887 34.2322 5.54887 33.8203 5.96083L32.3289 7.45223C31.9169 7.86419 31.9169 8.53166 32.3289 8.94363C32.7409 9.35566 33.4082 9.35566 33.8203 8.94363L35.3117 7.45223C35.7236 7.04026 35.7236 6.37279 35.3117 5.96083Z" fill="white"/>
<path d="M35.3117 20.1082L33.8203 18.6168C33.4083 18.2049 32.7408 18.2049 32.3289 18.6168C31.9169 19.0288 31.9169 19.6963 32.3289 20.1082L33.8203 21.5996C34.2323 22.0116 34.8996 22.0116 35.3117 21.5996C35.7236 21.1876 35.7236 20.5201 35.3117 20.1082Z" fill="white"/>
<path d="M25.9771 2.82927C23.0025 0.410937 19.1001 -0.52014 15.2819 0.28318C10.5214 1.27712 6.64461 5.21187 5.63528 9.97034C4.77732 14.0191 5.83609 18.0834 8.53876 21.1218C9.63142 22.3514 10.298 23.8354 10.5166 25.3818H13.7813V15.8896C13.7813 15.4812 16.8739 9.45502 17.0566 9.08975C17.415 8.37495 18.585 8.37495 18.9435 9.08975C19.1348 9.47239 22.2188 15.5016 22.2188 15.8896V25.3818H25.4871C25.7132 23.8428 26.3993 22.3351 27.5231 21.0529C29.5439 18.7488 30.6563 15.7907 30.6563 12.7255C30.6563 8.89709 28.9506 5.24555 25.9771 2.82927Z" fill="white"/>
<path d="M18 17.9062C17.2869 17.9062 16.5766 17.782 15.8906 17.5552V25.3818H20.1094V17.5552C19.4234 17.782 18.7131 17.9062 18 17.9062Z" fill="white"/>
<path d="M10.6172 27.4912V28.5459C10.6172 30.2906 12.0365 31.71 13.7812 31.71H22.2188C23.9635 31.71 25.3828 30.2906 25.3828 28.5459V27.4912H10.6172Z" fill="white"/>
<path d="M18.0001 11.9202L16.2571 15.4061C17.3835 15.8676 18.6166 15.8676 19.743 15.4061L18.0001 11.9202Z" fill="white"/>
<path d="M12.9208 33.8193C13.3576 35.0443 14.5174 35.999 15.8906 35.999H20.1093C21.4825 35.999 22.6423 35.0443 23.0791 33.8193H12.9208Z" fill="white"/>
</svg>
