<svg width="25" height="25" viewBox="0 0 25 25" fill="none" xmlns="http://www.w3.org/2000/svg">
<path d="M17.0874 2.48999H7.0874C4.32598 2.48999 2.0874 4.72857 2.0874 7.48999V17.49C2.0874 20.2514 4.32598 22.49 7.0874 22.49H17.0874C19.8488 22.49 22.0874 20.2514 22.0874 17.49V7.48999C22.0874 4.72857 19.8488 2.48999 17.0874 2.48999Z" stroke="white" stroke-width="2" stroke-linecap="round" stroke-linejoin="round"/>
<path d="M16.0874 11.86C16.2108 12.6923 16.0686 13.5423 15.6811 14.2891C15.2936 15.0359 14.6805 15.6415 13.929 16.0197C13.1775 16.398 12.3258 16.5296 11.4951 16.396C10.6645 16.2623 9.89711 15.8701 9.30219 15.2752C8.70727 14.6803 8.31509 13.9129 8.18142 13.0823C8.04776 12.2516 8.17942 11.3999 8.55768 10.6484C8.93594 9.8969 9.54154 9.28379 10.2883 8.89629C11.0351 8.50879 11.8851 8.36664 12.7174 8.49005C13.5663 8.61593 14.3522 9.01151 14.959 9.61835C15.5659 10.2252 15.9615 11.0111 16.0874 11.86Z" stroke="white" stroke-width="2" stroke-linecap="round" stroke-linejoin="round"/>
<path d="M17.5874 6.98999H17.5974" stroke="white" stroke-width="2" stroke-linecap="round" stroke-linejoin="round"/>
</svg>
