<svg width="36" height="36" viewBox="0 0 36 36" fill="none" xmlns="http://www.w3.org/2000/svg">
<path d="M27.1997 15.0997C28.1991 16.7631 28.7265 18.6607 28.7265 20.6099V21.7119H35.9999V15.0996H27.1997V15.0997Z" fill="white"/>
<path d="M0 15.0996V21.7119H7.27348V20.6099C7.27348 18.6607 7.80082 16.7631 8.80024 15.0997H0V15.0996Z" fill="white"/>
<path d="M21.6701 12.919C23.549 11.7086 24.7959 9.59814 24.7959 7.20168C24.7959 3.45437 21.7473 0.405762 18 0.405762C14.2527 0.405762 11.2041 3.45437 11.2041 7.20168C11.2041 9.59807 12.4509 11.7086 14.3299 12.919C11.4626 14.2929 9.47754 17.2238 9.47754 20.6098V21.7119H26.5224V20.6098C26.5224 17.2238 24.5374 14.2929 21.6701 12.919Z" fill="white"/>
<path d="M35.9065 27.9781L31.72 26.9283L29.4279 23.271L27.1358 26.9283L23.714 27.7863L20.2922 26.9283L18 23.271L15.7079 26.9283L12.2861 27.7863L8.86427 26.9283L6.57215 23.271L4.28011 26.9283L0.0936279 27.9781L2.86352 31.2881L2.56821 35.5941L6.57215 33.9826L10.5762 35.5941L10.2809 31.2881L12.2861 28.8918L14.2914 31.2881L13.996 35.5941L18 33.9826L22.0041 35.5941L21.7087 31.2881L23.714 28.8918L25.7192 31.2881L25.4239 35.5941L29.4279 33.9826L33.4319 35.5941L33.1366 31.2881L35.9065 27.9781Z" fill="white"/>
</svg>
