<svg width="25" height="25" viewBox="0 0 25 25" fill="none" xmlns="http://www.w3.org/2000/svg">
<path d="M23.7825 3.82109C22.8249 4.49657 21.7646 5.0132 20.6425 5.35109C20.0402 4.6586 19.2398 4.16778 18.3495 3.94502C17.4592 3.72225 16.522 3.77829 15.6646 4.10554C14.8071 4.4328 14.0709 5.01549 13.5555 5.77481C13.04 6.53412 12.7702 7.43343 12.7825 8.35109V9.35109C11.0251 9.39666 9.28374 9.0069 7.71348 8.21654C6.14321 7.42617 4.79279 6.25973 3.78247 4.82109C3.78247 4.82109 -0.217529 13.8211 8.78247 17.8211C6.723 19.2191 4.26963 19.92 1.78247 19.8211C10.7825 24.8211 21.7825 19.8211 21.7825 8.32109C21.7815 8.04254 21.7548 7.76469 21.7025 7.49109C22.7231 6.48458 23.4433 5.2138 23.7825 3.82109Z" fill="white"/>
</svg>
